<svg xmlns="http://www.w3.org/2000/svg" width="128" height="128" viewBox="0 0 24 24"><path fill="currentColor" d="m21 17l-.625-1.375L19 15l1.375-.625L21 13l.625 1.375L23 15l-1.375.625L21 17Zm-5-1l-1.25-2.75L12 12l2.75-1.25L16 8l1.25 2.75L20 12l-2.75 1.25L16 16Zm5-5l-.625-1.375L19 9l1.375-.625L21 7l.625 1.375L23 9l-1.375.625L21 11ZM7 23q-.825 0-1.413-.588T5 21V3q0-.825.588-1.413T7 1h10q.825 0 1.413.588T19 3v4h-2V6H7v12h10v-1h2v4q0 .825-.588 1.413T17 23H7Zm0-3v1h10v-1H7ZM7 4h10V3H7v1Zm0 0V3v1Zm0 16v1v-1Z"/></svg>